# xmcd CD database file
#
# Track frame offsets:
#	150
#	20700
#	39381
#	56075
#	73244
#	89617
#	116345
#	138751
#	158583
#	184106
#	201300
#	220008
#	238427
#	260319
#
# Disc length: 3742 seconds
#
# Revision: 0
# Processed by: cddbd v1.5.1PL2 Copyright (c) Steve Scherf et al.
# Submitted via: CDex 1.51
#
DISCID=cc0e9c0e
DTITLE=Casiopea - The Best - Special Edition
DYEAR=2005
DGENRE=Jazz
TTITLE0=A Fine Day
TTITLE1=Seasons
TTITLE2=Inishie
TTITLE3=Asayake
TTITLE4=Final Matter
TTITLE5=Eyes of the Mind
TTITLE6=Swear
TTITLE7=Looking Up
TTITLE8=Dream Hill
TTITLE9=What can't speak can't lie
TTITLE10=Hoshi Zora
TTITLE11=I Love New York
TTITLE12=It's a Love Story
TTITLE13=Forbbiden Fruits
EXTD=YEAR: 2005
EXTT0=
EXTT1=
EXTT2=
EXTT3=
EXTT4=
EXTT5=
EXTT6=
EXTT7=
EXTT8=
EXTT9=
EXTT10=
EXTT11=
EXTT12=
EXTT13=
PLAYORDER=
